<mxfile host="app.diagrams.net" modified="2021-07-13T08:37:10.390Z" agent="5.0 (Windows NT 10.0; Win64; x64) AppleWebKit/537.36 (KHTML, like Gecko) Chrome/91.0.4472.124 Safari/537.36" etag="Yy7IQhfFzZoOktrhhVox" version="14.8.6" type="github">
  <diagram id="mzLmkTchyPpx6X2ViSFh" name="Page-1">
    <mxGraphModel dx="1422" dy="762" grid="1" gridSize="10" guides="1" tooltips="1" connect="1" arrows="1" fold="1" page="1" pageScale="1" pageWidth="827" pageHeight="1169" math="0" shadow="0">
      <root>
        <mxCell id="0" />
        <mxCell id="1" parent="0" />
        <mxCell id="Z1cNxyu3MpxTD4Wfr18r-11" style="edgeStyle=orthogonalEdgeStyle;rounded=0;orthogonalLoop=1;jettySize=auto;html=1;entryX=0.5;entryY=0;entryDx=0;entryDy=0;" edge="1" parent="1" source="Z1cNxyu3MpxTD4Wfr18r-1" target="Z1cNxyu3MpxTD4Wfr18r-2">
          <mxGeometry relative="1" as="geometry" />
        </mxCell>
        <mxCell id="Z1cNxyu3MpxTD4Wfr18r-1" value="前端账号点击覆盖" style="rounded=0;whiteSpace=wrap;html=1;" vertex="1" parent="1">
          <mxGeometry x="160" y="80" width="120" height="60" as="geometry" />
        </mxCell>
        <mxCell id="Z1cNxyu3MpxTD4Wfr18r-12" style="edgeStyle=orthogonalEdgeStyle;rounded=0;orthogonalLoop=1;jettySize=auto;html=1;entryX=0.5;entryY=0;entryDx=0;entryDy=0;" edge="1" parent="1" source="Z1cNxyu3MpxTD4Wfr18r-2" target="Z1cNxyu3MpxTD4Wfr18r-10">
          <mxGeometry relative="1" as="geometry" />
        </mxCell>
        <mxCell id="Z1cNxyu3MpxTD4Wfr18r-2" value="查找重复客户" style="rounded=0;whiteSpace=wrap;html=1;" vertex="1" parent="1">
          <mxGeometry x="160" y="200" width="120" height="60" as="geometry" />
        </mxCell>
        <mxCell id="Z1cNxyu3MpxTD4Wfr18r-14" style="edgeStyle=orthogonalEdgeStyle;rounded=0;orthogonalLoop=1;jettySize=auto;html=1;entryX=0.5;entryY=0;entryDx=0;entryDy=0;" edge="1" parent="1" source="Z1cNxyu3MpxTD4Wfr18r-3" target="Z1cNxyu3MpxTD4Wfr18r-4">
          <mxGeometry relative="1" as="geometry" />
        </mxCell>
        <mxCell id="Z1cNxyu3MpxTD4Wfr18r-3" value="在transfer表查找到重复客户" style="rounded=0;whiteSpace=wrap;html=1;" vertex="1" parent="1">
          <mxGeometry x="160" y="480" width="120" height="60" as="geometry" />
        </mxCell>
        <mxCell id="Z1cNxyu3MpxTD4Wfr18r-15" style="edgeStyle=orthogonalEdgeStyle;rounded=0;orthogonalLoop=1;jettySize=auto;html=1;" edge="1" parent="1" source="Z1cNxyu3MpxTD4Wfr18r-4" target="Z1cNxyu3MpxTD4Wfr18r-5">
          <mxGeometry relative="1" as="geometry" />
        </mxCell>
        <mxCell id="Z1cNxyu3MpxTD4Wfr18r-4" value="将重复客户的编码赋值给待建档客户" style="rounded=0;whiteSpace=wrap;html=1;" vertex="1" parent="1">
          <mxGeometry x="160" y="600" width="120" height="60" as="geometry" />
        </mxCell>
        <mxCell id="Z1cNxyu3MpxTD4Wfr18r-16" style="edgeStyle=orthogonalEdgeStyle;rounded=0;orthogonalLoop=1;jettySize=auto;html=1;entryX=0.5;entryY=0;entryDx=0;entryDy=0;" edge="1" parent="1" source="Z1cNxyu3MpxTD4Wfr18r-5" target="Z1cNxyu3MpxTD4Wfr18r-6">
          <mxGeometry relative="1" as="geometry" />
        </mxCell>
        <mxCell id="Z1cNxyu3MpxTD4Wfr18r-5" value="移除重复客户的证照列表" style="rounded=0;whiteSpace=wrap;html=1;" vertex="1" parent="1">
          <mxGeometry x="160" y="720" width="120" height="60" as="geometry" />
        </mxCell>
        <mxCell id="Z1cNxyu3MpxTD4Wfr18r-6" value="覆盖完成" style="rounded=0;whiteSpace=wrap;html=1;" vertex="1" parent="1">
          <mxGeometry x="160" y="840" width="120" height="60" as="geometry" />
        </mxCell>
        <mxCell id="Z1cNxyu3MpxTD4Wfr18r-20" style="edgeStyle=orthogonalEdgeStyle;rounded=0;orthogonalLoop=1;jettySize=auto;html=1;" edge="1" parent="1" source="Z1cNxyu3MpxTD4Wfr18r-8" target="Z1cNxyu3MpxTD4Wfr18r-9">
          <mxGeometry relative="1" as="geometry" />
        </mxCell>
        <mxCell id="Z1cNxyu3MpxTD4Wfr18r-8" value="将重复客户的编码赋值给待建档客户" style="rounded=0;whiteSpace=wrap;html=1;" vertex="1" parent="1">
          <mxGeometry x="495" y="470" width="120" height="60" as="geometry" />
        </mxCell>
        <mxCell id="Z1cNxyu3MpxTD4Wfr18r-21" style="edgeStyle=orthogonalEdgeStyle;rounded=0;orthogonalLoop=1;jettySize=auto;html=1;entryX=1;entryY=0.5;entryDx=0;entryDy=0;" edge="1" parent="1" source="Z1cNxyu3MpxTD4Wfr18r-9" target="Z1cNxyu3MpxTD4Wfr18r-6">
          <mxGeometry relative="1" as="geometry">
            <Array as="points">
              <mxPoint x="555" y="670" />
              <mxPoint x="388" y="670" />
              <mxPoint x="388" y="870" />
            </Array>
          </mxGeometry>
        </mxCell>
        <mxCell id="Z1cNxyu3MpxTD4Wfr18r-9" value="已核准客户需要改为草稿状态" style="rounded=0;whiteSpace=wrap;html=1;" vertex="1" parent="1">
          <mxGeometry x="495" y="600" width="120" height="60" as="geometry" />
        </mxCell>
        <mxCell id="Z1cNxyu3MpxTD4Wfr18r-13" style="edgeStyle=orthogonalEdgeStyle;rounded=0;orthogonalLoop=1;jettySize=auto;html=1;" edge="1" parent="1" source="Z1cNxyu3MpxTD4Wfr18r-10" target="Z1cNxyu3MpxTD4Wfr18r-3">
          <mxGeometry relative="1" as="geometry" />
        </mxCell>
        <mxCell id="Z1cNxyu3MpxTD4Wfr18r-18" style="edgeStyle=orthogonalEdgeStyle;rounded=0;orthogonalLoop=1;jettySize=auto;html=1;entryX=0;entryY=0.5;entryDx=0;entryDy=0;" edge="1" parent="1" source="Z1cNxyu3MpxTD4Wfr18r-10" target="Z1cNxyu3MpxTD4Wfr18r-17">
          <mxGeometry relative="1" as="geometry" />
        </mxCell>
        <mxCell id="Z1cNxyu3MpxTD4Wfr18r-10" value="&lt;span&gt;在transfer表查找到重复客户&lt;/span&gt;" style="rhombus;whiteSpace=wrap;html=1;" vertex="1" parent="1">
          <mxGeometry x="95" y="310" width="250" height="80" as="geometry" />
        </mxCell>
        <mxCell id="Z1cNxyu3MpxTD4Wfr18r-19" style="edgeStyle=orthogonalEdgeStyle;rounded=0;orthogonalLoop=1;jettySize=auto;html=1;entryX=0.5;entryY=0;entryDx=0;entryDy=0;" edge="1" parent="1" source="Z1cNxyu3MpxTD4Wfr18r-17" target="Z1cNxyu3MpxTD4Wfr18r-8">
          <mxGeometry relative="1" as="geometry" />
        </mxCell>
        <mxCell id="Z1cNxyu3MpxTD4Wfr18r-24" style="edgeStyle=orthogonalEdgeStyle;rounded=0;orthogonalLoop=1;jettySize=auto;html=1;entryX=0.5;entryY=0;entryDx=0;entryDy=0;" edge="1" parent="1" source="Z1cNxyu3MpxTD4Wfr18r-17" target="Z1cNxyu3MpxTD4Wfr18r-22">
          <mxGeometry relative="1" as="geometry" />
        </mxCell>
        <mxCell id="Z1cNxyu3MpxTD4Wfr18r-17" value="&lt;span&gt;在release表查找重复客户&lt;/span&gt;" style="rhombus;whiteSpace=wrap;html=1;" vertex="1" parent="1">
          <mxGeometry x="430" y="310" width="250" height="80" as="geometry" />
        </mxCell>
        <mxCell id="Z1cNxyu3MpxTD4Wfr18r-22" value="覆盖失败，重复供应商已被修改，目前无重复" style="rounded=0;whiteSpace=wrap;html=1;" vertex="1" parent="1">
          <mxGeometry x="690" y="840" width="120" height="60" as="geometry" />
        </mxCell>
      </root>
    </mxGraphModel>
  </diagram>
</mxfile>
